<?xml version="1.0" standalone="no"?>
<!DOCTYPE svg PUBLIC "-//W3C//DTD SVG 20010904//EN"
 "http://www.w3.org/TR/2001/REC-SVG-20010904/DTD/svg10.dtd">
<svg version="1.0" xmlns="http://www.w3.org/2000/svg"
 width="700.000000pt" height="700.000000pt" viewBox="0 0 700.000000 700.000000"
 preserveAspectRatio="xMidYMid meet">
<metadata>
Created by potrace 1.14, written by Peter Selinger 2001-2017
</metadata>
<g transform="translate(0.000000,700.000000) scale(0.100000,-0.100000)"
fill="#000000" stroke="none">
<path d="M3308 6995 c-2 -2 -32 -6 -68 -9 -130 -11 -329 -47 -450 -83 -47 -13
-92 -26 -100 -28 -21 -5 -149 -50 -185 -65 -16 -7 -46 -19 -65 -28 -74 -31
-259 -126 -338 -174 -85 -51 -282 -192 -342 -244 -310 -270 -530 -547 -702
-883 -84 -165 -182 -432 -204 -554 -2 -17 -7 -34 -9 -37 -3 -4 -7 -25 -10 -46
-3 -22 -8 -45 -10 -52 -3 -7 -7 -34 -10 -60 -4 -26 -8 -58 -11 -72 -25 -155
-25 -497 0 -690 76 -566 426 -1295 979 -2040 91 -123 282 -368 296 -380 5 -4
79 -94 103 -125 5 -5 18 -22 31 -36 12 -14 47 -54 77 -89 30 -35 75 -87 100
-115 25 -28 73 -82 106 -120 34 -39 75 -84 90 -100 26 -27 187 -202 268 -289
15 -17 105 -112 200 -210 264 -276 302 -316 377 -393 l71 -72 26 28 c26 27
345 360 447 466 66 70 265 282 346 370 35 38 74 79 86 92 12 12 104 116 204
230 592 675 982 1232 1256 1793 144 295 267 630 298 815 2 11 8 47 14 80 6 33
13 74 16 90 25 149 26 544 1 700 -6 33 -29 167 -31 175 -1 3 -5 23 -9 45 -4
22 -15 63 -23 90 -8 28 -16 61 -19 74 -3 13 -25 81 -50 150 -54 150 -156 358
-243 496 -59 94 -187 271 -221 305 -8 9 -31 36 -51 60 -47 58 -178 189 -258
260 -152 133 -352 270 -552 377 -244 132 -597 244 -874 278 -28 4 -64 8 -80
11 -35 6 -472 14 -477 9z"/>
</g>
</svg>
